<?xml version="1.0" encoding="UTF-8"?>
<svg id="Layer_1" data-name="Layer 1" xmlns="http://www.w3.org/2000/svg" viewBox="0 0 660.38 583.34">
  <defs>
    <style>
      .cls-1 {
        fill: #878787;
        stroke-width: 0px;
      }
    </style>
  </defs>
  <path class="cls-1" d="M450.77,391.54h-10.58s-230.28-.09-230.28-.09c-38.44,0-69.72-31.36-69.72-69.91,0-33.28,22.99-61.09,54.28-68.17-.51-2.8-.76-5.66-.76-8.56,0-26.25,21.36-47.61,47.61-47.61,8.72,0,17.08,2.33,24.37,6.69,19.98-26.42,50.81-41.9,84.46-41.9,52.58,0,96.91,38.73,104.78,89.77,36.4,2.45,65.27,32.83,65.27,69.83s-31.1,69.58-69.32,69.95c-.03,0-.07,0-.1,0ZM440.19,371.54h10.53c27.28-.29,49.46-22.69,49.46-49.95s-22.44-49.99-50.02-49.99c-1.18,0-2.44.08-3.52.15-2.65.19-5.27-.7-7.28-2.45-2-1.75-3.23-4.23-3.4-6.89-2.89-45.1-40.6-80.42-85.84-80.42-30.34,0-57.86,15.51-73.61,41.49-1.59,2.63-4.31,4.38-7.37,4.74-3.06.36-6.11-.7-8.27-2.88-5.22-5.25-12.17-8.14-19.58-8.14-15.22,0-27.61,12.39-27.61,27.61,0,4.34.99,8.51,2.93,12.37,1.53,3.04,1.41,6.64-.32,9.57-1.73,2.93-4.82,4.78-8.22,4.91-26.86,1.06-47.9,22.97-47.9,49.87s22.3,49.91,49.72,49.91h10.28l220,.09Z"/>
  <path class="cls-1" d="M295.15,498.39c-2.56,0-5.12-.98-7.07-2.93-3.9-3.91-3.9-10.24,0-14.14l25.04-25.02c3.91-3.9,10.24-3.9,14.14,0,3.9,3.91,3.9,10.24,0,14.14l-25.04,25.02c-1.95,1.95-4.51,2.93-7.07,2.93Z"/>
  <path class="cls-1" d="M208.15,441.39c-2.56,0-5.12-.98-7.07-2.93-3.9-3.91-3.9-10.24,0-14.14l15.79-15.78c3.91-3.9,10.24-3.9,14.14,0s3.9,10.24,0,14.14l-15.79,15.78c-1.95,1.95-4.51,2.93-7.07,2.93Z"/>
  <path class="cls-1" d="M347.15,441.39c-2.56,0-5.12-.98-7.07-2.93-3.9-3.91-3.9-10.24,0-14.14l15.79-15.78c3.91-3.9,10.24-3.9,14.14,0s3.9,10.24,0,14.14l-15.79,15.78c-1.95,1.95-4.51,2.93-7.07,2.93Z"/>
  <path class="cls-1" d="M392.15,466.55c-2.56,0-5.12-.98-7.08-2.93-3.9-3.91-3.9-10.24,0-14.14l40.99-40.94c3.91-3.9,10.24-3.9,14.14,0,3.9,3.91,3.9,10.24,0,14.14l-40.99,40.94c-1.95,1.95-4.51,2.92-7.07,2.92Z"/>
  <path class="cls-1" d="M241.15,477.55c-2.56,0-5.12-.98-7.07-2.93-3.9-3.91-3.9-10.24,0-14.14l51.99-51.94c3.91-3.9,10.24-3.9,14.14,0s3.9,10.24,0,14.14l-51.99,51.94c-1.95,1.95-4.51,2.93-7.07,2.93Z"/>
</svg>