<?xml version="1.0" encoding="UTF-8"?>
<svg id="Layer_1" data-name="Layer 1" xmlns="http://www.w3.org/2000/svg" viewBox="0 0 660.38 660.38">
  <defs>
    <style>
      .cls-1 {
        fill: #f9b233;
        stroke-width: 0px;
      }
    </style>
  </defs>
  <path class="cls-1" d="M330.34,479.78c-82.4,0-149.44-67.04-149.44-149.44s67.04-149.44,149.44-149.44,149.44,67.04,149.44,149.44-67.04,149.44-149.44,149.44ZM330.34,210.78c-65.92,0-119.56,53.63-119.56,119.56s53.63,119.56,119.56,119.56,119.56-53.63,119.56-119.56-53.63-119.56-119.56-119.56Z"/>
  <path class="cls-1" d="M330.19,156.83c-8.25,0-14.94-6.69-14.94-14.94V61.19c0-8.25,6.69-14.94,14.94-14.94s14.94,6.69,14.94,14.94v80.7c0,8.25-6.69,14.94-14.94,14.94Z"/>
  <path class="cls-1" d="M330.19,614.13c-8.25,0-14.94-6.69-14.94-14.94v-80.7c0-8.25,6.69-14.94,14.94-14.94s14.94,6.69,14.94,14.94v80.7c0,8.25-6.69,14.94-14.94,14.94Z"/>
  <path class="cls-1" d="M141.89,345.13H61.19c-8.25,0-14.94-6.69-14.94-14.94s6.69-14.94,14.94-14.94h80.7c8.25,0,14.94,6.69,14.94,14.94s-6.69,14.94-14.94,14.94Z"/>
  <path class="cls-1" d="M599.19,345.13h-80.7c-8.25,0-14.94-6.69-14.94-14.94s6.69-14.94,14.94-14.94h80.7c8.25,0,14.94,6.69,14.94,14.94s-6.69,14.94-14.94,14.94Z"/>
  <path class="cls-1" d="M462.51,212.81c-3.82,0-7.65-1.46-10.57-4.38-5.84-5.84-5.84-15.3,0-21.14l57.89-57.89c5.84-5.84,15.3-5.84,21.14,0,5.84,5.84,5.84,15.3,0,21.14l-57.89,57.89c-2.92,2.92-6.74,4.38-10.57,4.38Z"/>
  <path class="cls-1" d="M139.98,535.35c-3.82,0-7.65-1.46-10.57-4.38-5.84-5.84-5.84-15.3,0-21.14l57.89-57.89c5.84-5.84,15.3-5.84,21.14,0,5.84,5.84,5.84,15.3,0,21.14l-57.89,57.89c-2.92,2.92-6.74,4.38-10.57,4.38Z"/>
  <path class="cls-1" d="M197.87,212.81c-3.82,0-7.65-1.46-10.57-4.38l-57.89-57.89c-5.84-5.84-5.84-15.3,0-21.14,5.84-5.84,15.3-5.84,21.14,0l57.89,57.89c5.84,5.84,5.84,15.3,0,21.14-2.92,2.92-6.74,4.38-10.57,4.38Z"/>
  <path class="cls-1" d="M520.4,535.35c-3.82,0-7.65-1.46-10.57-4.38l-57.89-57.89c-5.84-5.84-5.84-15.3,0-21.14,5.84-5.84,15.3-5.84,21.14,0l57.89,57.89c5.84,5.84,5.84,15.3,0,21.14-2.92,2.92-6.74,4.38-10.57,4.38Z"/>
</svg>